<svg version="1" xmlns="http://www.w3.org/2000/svg" width="682.667" height="682.667" viewBox="0 0 512.000000 512.000000"><path d="M210 65.1c-20.5 2.7-43.3 9.5-61.1 18.4-57.8 28.7-96.1 82.2-104.4 145.8-10.4 80.4 32.1 159.2 105 194.7 45.4 22.1 97.7 25.2 145.3 8.5 13-4.5 24.5-9.8 34.5-15.9l7.9-4.8 7.7 3.5c16.3 7.5 33 10.9 53.1 11 33.9 0 65.1-12.3 89.3-35.3l8.2-7.8-8-.7c-34.1-3-63.5-16.8-86.1-40.8-18-18.9-29.5-42.4-33.9-68.6-2.1-12.3-1.6-36.3.9-47.6 4.7-21.2 14.3-41.1 26.7-55.6l4.7-5.6-2.7-4.9c-7.8-14.4-23.4-34.1-35.7-45.1C329.9 86 294.2 69.7 253.5 65c-10.4-1.1-34.1-1.1-43.5.1z"/></svg>