<svg width="752" height="629" viewBox="0 0 752 629" fill="none" xmlns="http://www.w3.org/2000/svg">
<g clip-path="url(#clip0)">
<path d="M738.777 233.32L717.507 234.843L712.841 254.785L704.361 235.785L683.091 237.308L699.12 224.042L690.641 205.041L709.027 215.843L725.056 202.576L720.39 222.518L738.777 233.32Z" fill="#75BDFF"/>
<path d="M263.009 197.018L240.812 198.62L235.934 219.469L227.093 199.61L204.895 201.212L221.629 187.337L212.788 167.478L231.971 178.761L248.704 164.886L243.826 185.735L263.009 197.018Z" fill="#95CCFF"/>
<path d="M705.029 118.834L682.831 120.436L677.954 141.285L669.112 121.426L646.915 123.028L663.648 109.153L654.807 89.2943L673.99 100.578L690.724 86.7024L685.846 107.551L705.029 118.834Z" fill="#68B7FF"/>
<path d="M546.763 52.8563L524.565 54.4582L519.687 75.3067L510.846 55.4482L488.649 57.0501L505.382 43.175L496.541 23.3164L515.724 34.5996L532.457 20.7245L527.58 41.573L546.763 52.8563Z" fill="#75BDFF"/>
<path d="M664.616 296.583L643.346 298.106L638.68 318.048L630.2 299.048L608.93 300.571L624.959 287.305L616.479 268.304L634.866 279.106L650.895 265.839L646.229 285.781L664.616 296.583Z" fill="#95CCFF"/>
<path d="M375.69 216.617L355.217 218.622L350.339 239.471L342.564 219.862L322.09 221.867L337.758 207.742L329.982 188.133L347.441 199.013L363.109 184.888L358.231 205.737L375.69 216.617Z" fill="#75BDFF"/>
<path d="M68.3965 349.143L46.9955 351.227L41.9058 372.982L33.769 352.515L12.368 354.599L28.7402 339.866L20.6034 319.398L38.8587 330.76L55.2309 316.027L50.1412 337.782L68.3965 349.143Z" fill="#95CCFF"/>
<rect x="359.922" y="626.299" width="267" height="10" rx="5" transform="rotate(-88.0526 359.922 626.299)" fill="#FF8D8D"/>
<rect x="376.653" y="626.918" width="266.19" height="10" rx="5" transform="rotate(-91.7648 376.653 626.918)" fill="#FF8D8D"/>
<rect width="244.03" height="7.58887" rx="3.79444" transform="matrix(0.34202 -0.939693 0.965208 0.261483 287.12 588.044)" fill="#FFD9D9"/>
<rect width="244.811" height="7.58887" rx="3.79444" transform="matrix(0.291335 -0.956621 0.977798 0.20955 300.029 593.053)" fill="#FFB3B3"/>
<rect width="228.991" height="6.54745" rx="3.27373" transform="matrix(-0.34202 -0.939693 0.965762 -0.259429 447.477 575.133)" fill="#FFD9D9"/>
<rect width="228.991" height="6.54745" rx="3.27373" transform="matrix(-0.288204 -0.957569 0.978915 -0.204268 437.272 579.999)" fill="#FFB3B3"/>
<rect x="325.445" y="353.897" width="81.4783" height="10.9346" rx="5.46731" transform="rotate(-22.8532 325.445 353.897)" fill="#FF8D8D"/>
<rect x="400.877" y="322.831" width="28.541" height="10.9346" rx="5.46731" transform="rotate(65.2436 400.877 322.831)" fill="#FFB3B3"/>
<rect x="333.05" y="349.253" width="29.9703" height="10.9346" rx="5.46731" transform="rotate(65.2436 333.05 349.253)" fill="#FFD9D9"/>
<rect x="332.12" y="371.17" width="82.1818" height="10.9346" rx="5.46731" transform="rotate(-22.8532 332.12 371.17)" fill="#FFB3B3"/>
<rect x="543" y="262" width="47" height="10" rx="5" fill="#FFD9D9"/>
<rect x="192.691" y="408.521" width="384.388" height="12" rx="6" transform="rotate(-22.8532 192.691 408.521)" fill="#FF7A7A"/>
<rect x="167.203" y="353.199" width="384.809" height="12" rx="6" transform="rotate(-22.8 167.203 353.199)" fill="#FFD9D9"/>
<rect x="548.271" y="174.672" width="104" height="10" rx="5" transform="rotate(65.5 548.271 174.672)" fill="#FF7A7A"/>
<rect x="124.364" y="394.11" width="62.7065" height="12" rx="6" transform="rotate(-32.7208 124.364 394.11)" fill="#FF7A7A"/>
<rect x="513.994" y="209.578" width="47.2512" height="10" rx="5" transform="rotate(-48.5 513.994 209.578)" fill="#FF7A7A"/>
<rect x="135.169" y="415.692" width="63.2015" height="12" rx="6" transform="rotate(-18.5294 135.169 415.692)" fill="#FFB3B3"/>
<rect x="522.047" y="203.938" width="72.3971" height="8" rx="4" transform="rotate(65.7417 522.047 203.938)" fill="#FF7A7A"/>
<rect x="174.476" y="350.452" width="72.5336" height="8" rx="4" transform="rotate(65.2436 174.476 350.452)" fill="#FF7A7A"/>
<rect x="105.471" y="389.535" width="23.4783" height="7.90757" rx="3.95379" transform="rotate(-24.1163 105.471 389.535)" fill="#FFD9D9"/>
<rect x="143.911" y="436.732" width="58.7743" height="7.90757" rx="3.95379" transform="rotate(-114.093 143.911 436.732)" fill="#FF7A7A"/>
<rect x="129.463" y="443.184" width="58.7036" height="7.90757" rx="3.95379" transform="rotate(-114.093 129.463 443.184)" fill="#FF7A7A"/>
<rect x="126.282" y="435.84" width="23.5389" height="7.90757" rx="3.95379" transform="rotate(-23.2694 126.282 435.84)" fill="#FF7A7A"/>
<path d="M179 361L199.5 406L540 262.5L519.5 218L179 361Z" fill="#FFD9D9"/>
</g>
<defs>
<clipPath id="clip0">
<rect width="752" height="629" fill="white"/>
</clipPath>
</defs>
</svg>
