<svg width="867" height="788" viewBox="0 0 867 788" fill="none" xmlns="http://www.w3.org/2000/svg">
<rect width="867" height="788" fill="white"/>
<path d="M782.777 318.32L761.507 319.843L756.841 339.785L748.361 320.785L727.091 322.308L743.12 309.042L734.641 290.041L753.027 300.843L769.056 287.576L764.39 307.518L782.777 318.32Z" fill="#75BDFF"/>
<path d="M307.009 282.018L284.812 283.62L279.934 304.469L271.093 284.61L248.895 286.212L265.629 272.337L256.788 252.478L275.971 263.761L292.704 249.886L287.826 270.735L307.009 282.018Z" fill="#95CCFF"/>
<path d="M749.029 203.834L726.831 205.436L721.954 226.285L713.112 206.426L690.915 208.028L707.648 194.153L698.807 174.294L717.99 185.578L734.724 171.702L729.846 192.551L749.029 203.834Z" fill="#68B7FF"/>
<path d="M590.763 137.856L568.565 139.458L563.687 160.307L554.846 140.448L532.649 142.05L549.382 128.175L540.541 108.316L559.724 119.6L576.457 105.724L571.58 126.573L590.763 137.856Z" fill="#75BDFF"/>
<path d="M708.616 381.583L687.346 383.106L682.68 403.048L674.2 384.048L652.93 385.571L668.959 372.305L660.479 353.304L678.866 364.106L694.895 350.839L690.229 370.781L708.616 381.583Z" fill="#95CCFF"/>
<path d="M419.69 301.617L399.217 303.622L394.339 324.471L386.564 304.862L366.09 306.867L381.758 292.742L373.982 273.133L391.441 284.013L407.109 269.888L402.231 290.737L419.69 301.617Z" fill="#75BDFF"/>
<path d="M112.397 434.143L90.9955 436.227L85.9058 457.982L77.769 437.515L56.368 439.599L72.7402 424.866L64.6034 404.398L82.8587 415.76L99.2309 401.027L94.1412 422.782L112.397 434.143Z" fill="#95CCFF"/>
<rect x="403.922" y="711.299" width="267" height="10" rx="5" transform="rotate(-88.0526 403.922 711.299)" fill="#FF8D8D"/>
<rect x="420.653" y="711.918" width="266.19" height="10" rx="5" transform="rotate(-91.7648 420.653 711.918)" fill="#FF8D8D"/>
<rect width="244.03" height="7.58887" rx="3.79444" transform="matrix(0.34202 -0.939693 0.965208 0.261483 331.12 673.044)" fill="#FFD9D9"/>
<rect width="244.811" height="7.58887" rx="3.79444" transform="matrix(0.291335 -0.956621 0.977798 0.20955 344.029 678.053)" fill="#FFB3B3"/>
<rect width="228.991" height="6.54745" rx="3.27373" transform="matrix(-0.34202 -0.939693 0.965762 -0.259429 491.477 660.133)" fill="#FFD9D9"/>
<rect width="228.991" height="6.54745" rx="3.27373" transform="matrix(-0.288204 -0.957569 0.978915 -0.204268 481.272 664.999)" fill="#FFB3B3"/>
<rect x="369.445" y="438.897" width="81.4783" height="10.9346" rx="5.46731" transform="rotate(-22.8532 369.445 438.897)" fill="#FF8D8D"/>
<rect x="444.877" y="407.831" width="28.541" height="10.9346" rx="5.46731" transform="rotate(65.2436 444.877 407.831)" fill="#FFB3B3"/>
<rect x="377.05" y="434.253" width="29.9703" height="10.9346" rx="5.46731" transform="rotate(65.2436 377.05 434.253)" fill="#FFD9D9"/>
<rect x="376.12" y="456.17" width="82.1818" height="10.9346" rx="5.46731" transform="rotate(-22.8532 376.12 456.17)" fill="#FFB3B3"/>
<rect x="587" y="347" width="47" height="10" rx="5" fill="#FFD9D9"/>
<rect x="236.691" y="493.521" width="384.388" height="12" rx="6" transform="rotate(-22.8532 236.691 493.521)" fill="#FF7A7A"/>
<rect x="211.267" y="438.365" width="384.809" height="12" rx="6" transform="rotate(-22.8532 211.267 438.365)" fill="#FFD9D9"/>
<rect x="592.271" y="259.672" width="104" height="10" rx="5" transform="rotate(65.5 592.271 259.672)" fill="#FF7A7A"/>
<rect x="168.364" y="479.11" width="62.7065" height="12" rx="6" transform="rotate(-32.7208 168.364 479.11)" fill="#FF7A7A"/>
<rect x="557.994" y="294.578" width="47.2512" height="10" rx="5" transform="rotate(-48.5 557.994 294.578)" fill="#FF7A7A"/>
<rect x="179.169" y="500.692" width="63.2015" height="12" rx="6" transform="rotate(-18.5294 179.169 500.692)" fill="#FFB3B3"/>
<rect x="566.047" y="288.938" width="72.3971" height="8" rx="4" transform="rotate(65.7417 566.047 288.938)" fill="#FF7A7A"/>
<rect x="218.476" y="435.452" width="72.5336" height="8" rx="4" transform="rotate(65.2436 218.476 435.452)" fill="#FF7A7A"/>
<rect x="149.471" y="474.535" width="23.4783" height="7.90757" rx="3.95379" transform="rotate(-24.1163 149.471 474.535)" fill="#FFD9D9"/>
<rect x="187.911" y="521.732" width="58.7743" height="7.90757" rx="3.95379" transform="rotate(-114.093 187.911 521.732)" fill="#FF7A7A"/>
<rect x="173.463" y="528.184" width="58.7036" height="7.90757" rx="3.95379" transform="rotate(-114.093 173.463 528.184)" fill="#FF7A7A"/>
<rect x="170.282" y="520.841" width="23.5389" height="7.90757" rx="3.95379" transform="rotate(-23.2694 170.282 520.841)" fill="#FF7A7A"/>
<path d="M569 296.5C569 296.5 588.5 274.5 588.5 275L621.5 347.5H592.5L569 296.5Z" fill="white"/>
<path d="M569 296.5C569 296.5 588.5 274.5 588.5 275L621.5 347.5H592.5L569 296.5Z" stroke="#FF7A7A"/>
<path d="M223 446L243.5 491L584 347.5L563.5 303L223 446Z" fill="#FFD9D9"/>
<path d="M223 446L243.5 491L584 347.5L563.5 303L223 446Z" stroke="#FFB3B3"/>
</svg>
