<svg width="512" height="512" viewBox="0 0 512 512" fill="none" xmlns="http://www.w3.org/2000/svg">
<path fill-rule="evenodd" clip-rule="evenodd" d="M270.076 291.233C272.376 220.821 329.872 165.218 399.667 164.604C367.83 104.893 304.93 64.251 232.537 64.251C128.002 64.251 43.2605 148.993 43.2605 253.527C43.2605 358.062 128.002 442.804 232.537 442.804C271.717 442.804 308.117 430.899 338.317 410.509C296.279 387.586 268.406 342.354 270.076 291.233Z" fill="#FF6767"/>
<path fill-rule="evenodd" clip-rule="evenodd" d="M399.137 164.462C329.238 163.734 270.654 218.369 267.122 288.807C263.5 361.014 319.1 422.485 391.307 426.106C432.15 428.154 469.559 411.255 495.006 383.119C493.251 383.101 491.49 383.047 489.722 382.959C417.515 379.337 361.916 317.867 365.537 245.66C367.11 214.297 379.597 186.067 399.137 164.462Z" fill="#67B6FF"/>
</svg>
